/* XPM */
static char * tank01_mask_xpm[] = {
"64 64 3 1",
" 	c None",
".	c #FFFFFF",
"+	c #000000",
"................................................................",
"................................................................",
"................................................................",
"................................................................",
"................................................................",
"................................................................",
"................................................................",
".......................++++.....................................",
"......................+++++++++++...............................",
".....................++....++++++++++...++......................",
"....................+++........++++++++..++.....................",
"....................++++++........+++++..++.....................",
"...................++++++++++.......++++.++.....................",
".................+++++++++++++++....+++++++.....................",
".................+++++++++++++++++...++++.......................",
".................++++++++++++++++++.............................",
".................+++++++++++++++++++++..........................",
"................+++++++++++++++++++++++.........................",
".........++++...++++++++++++++++++++++++........................",
".......+++++++++++++++++++++++++++++++++++......................",
".....+++++++++++++++++++++++++++++++++++++++....................",
"...+++++++++++++++++++++++++++++++++++++++++....................",
"..+++++++++++++++++++++++++++++++++++++++++++++.................",
"..++++++++++++++++++++++++++++++++++++++++++++++................",
"..+++++++++++++++++++++++++++++++++++++++++++++++...............",
"...++++++++++++++++++++++++++++++++++++++++++++++++.............",
"...+++++++++++++++++++++++++++++++++++++++++++++++++............",
"....+++++++++++++++++++++++++++++++++++++++++++++++++...........",
"....++++++++++++++++++++++++++++++++++++++++++++++++++..........",
"....+++++++++++++++++++++++++++++++++++++++++++++++++++.........",
".....+++++++++++++++++++++++++++++++++++++++++++++++++++........",
".....+++++++++++++++++++++++++++++++++++++++++++++++++++++......",
"......+++++++++++++++++++++++++++++++++++++++++++++++++++++.....",
"......++++++++++++++++++++++++++++++++++++++++++++++++++++++....",
".......++++++++++++++++++++++++++++++++++++++++++++++++++++++...",
"........++++++++++++++++++++++++++++++++++++++++++++++++++++++..",
"..........++++++++++++++++++++++++++++++++++++++++++++++++++++..",
"...........+++++++++++++++++++++++++++++++++++++++++++++++++++..",
".............++++++++++++++++++++++++++++++++++++++++++++++++...",
"...............+++++++++++++++++++++++++++++++++++++++++++++....",
"................++++++++++++++++++++++++++++++++++++++++++++....",
"..................+++++++++++++++++++++++++++++++++++++++++.....",
"...................++++++++++++++++++++++++++++++++++++++++.....",
".....................+++++++++++++++++++++++++++++++++++++......",
"......................++++++++++++++++++++++++++++++++++++......",
"........................+++++++++++++++++++++++++++++++++.......",
"..........................+++++++++++++++++++++++++++++++.......",
"............................++++++++++++++++++++++++++++........",
"..............................++++++++++++++++++++++++++........",
"................................+++++++++++++++++++++++.........",
"..................................+++++++++++++++++++++.........",
"....................................+++++++++++++++++++.........",
"......................................+++++++++++++++++.........",
"........................................+++++++++++++++.........",
"..........................................++++++++++++..........",
"............................................++++++++++..........",
"................................................................",
"................................................................",
"................................................................",
"................................................................",
"................................................................",
"................................................................",
"................................................................",
"................................................................"};
