/* XPM */
static char * ffwd_xpm[] = {
"24 24 127 2",
"  	c None",
". 	c #CECECE",
"+ 	c #C0C0C0",
"@ 	c #B8B8B8",
"# 	c #BCBCBC",
"$ 	c #C6C6C6",
"% 	c #D0D0D0",
"& 	c #D8D8D8",
"* 	c #DCDCDC",
"= 	c #DEDEDE",
"- 	c #D7D7D7",
"; 	c #C8C8C8",
"> 	c #BABABA",
", 	c #B7B7B7",
"' 	c #C4C4C4",
") 	c #AEAEAE",
"! 	c #A2A2A2",
"~ 	c #A6A6A6",
"{ 	c #B4B4B4",
"] 	c #D3D3D3",
"^ 	c #BBBBBB",
"/ 	c #AFAFAF",
"( 	c #A5A5A5",
"_ 	c #A0A0A0",
": 	c #B9B9B9",
"< 	c #9A9A9A",
"[ 	c #888888",
"} 	c #8B8B8B",
"| 	c #9C9C9C",
"1 	c #B2B2B2",
"2 	c #CDCDCD",
"3 	c #BEBEBE",
"4 	c #ACACAC",
"5 	c #8D8D8D",
"6 	c #878787",
"7 	c #868686",
"8 	c #6C6C6C",
"9 	c #6D6D6D",
"0 	c #818181",
"a 	c #C7C7C7",
"b 	c #828282",
"c 	c #717171",
"d 	c #696969",
"e 	c #A3A3A3",
"f 	c #747474",
"g 	c #313131",
"h 	c #515151",
"i 	c #646464",
"j 	c #7F7F7F",
"k 	c #A7A7A7",
"l 	c #585858",
"m 	c #4E4E4E",
"n 	c #666666",
"o 	c #1A1A1A",
"p 	c #2A2A2A",
"q 	c #484848",
"r 	c #626262",
"s 	c #7E7E7E",
"t 	c #C5C5C5",
"u 	c #D2D2D2",
"v 	c #DADADA",
"w 	c #9D9D9D",
"x 	c #797979",
"y 	c #595959",
"z 	c #434343",
"A 	c #383838",
"B 	c #969696",
"C 	c #5B5B5B",
"D 	c #272727",
"E 	c #464646",
"F 	c #C9C9C9",
"G 	c #D6D6D6",
"H 	c #B5B5B5",
"I 	c #949494",
"J 	c #4A4A4A",
"K 	c #0D0D0D",
"L 	c #101010",
"M 	c #121212",
"N 	c #929292",
"O 	c #565656",
"P 	c #353535",
"Q 	c #262626",
"R 	c #BDBDBD",
"S 	c #8E8E8E",
"T 	c #656565",
"U 	c #3F3F3F",
"V 	c #151515",
"W 	c #282828",
"X 	c #1E1E1E",
"Y 	c #919191",
"Z 	c #525252",
"` 	c #3C3C3C",
" .	c #474747",
"..	c #8A8A8A",
"+.	c #CACACA",
"@.	c #B0B0B0",
"#.	c #5F5F5F",
"$.	c #393939",
"%.	c #363636",
"&.	c #3D3D3D",
"*.	c #909090",
"=.	c #505050",
"-.	c #4C4C4C",
";.	c #757575",
">.	c #5C5C5C",
",.	c #161616",
"'.	c #424242",
").	c #575757",
"!.	c #2E2E2E",
"~.	c #5A5A5A",
"{.	c #333333",
"].	c #5E5E5E",
"^.	c #404040",
"/.	c #8F8F8F",
"(.	c #ADADAD",
"_.	c #3E3E3E",
":.	c #2C2C2C",
"<.	c #303030",
"[.	c #3A3A3A",
"}.	c #171717",
"|.	c #2F2F2F",
"1.	c #616161",
"2.	c #9B9B9B",
"3.	c #141414",
"4.	c #191919",
"5.	c #1C1C1C",
"6.	c #636363",
". + @ # $ % & * = = = = - % ; + > , , > + ; % - ",
"' ) ! ~ { ' % & * = = = ] ; ^ / ( _ _ ( / ^ ; ] ",
": < [ } | 1 ' % & * = = 2 3 4 < 5 6 6 5 < 4 3 2 ",
") 7 8 9 0 < 1 ' % & * = a 1 < b c d d c b < 1 a ",
"e f g h i j < 1 ' % & * + k [ 8 l m m l 8 [ k + ",
"| n o p q r s < 1 t u v > w x y z A A z y x w > ",
"B C o p D E r s | { F G H I 9 J K L L M J 9 I H ",
"N O o P p Q E r 0 _ R % 1 S T U V D W X U T S 1 ",
"Y Z o ` ` p Q  .n ..) +.@...#.$.V %.&.X $.#...@.",
"*.=.o ` -.` p W m ;._ ' ) [ >.P ,.A '.X P >.[ ) ",
"*.=.o ` ).-.` p !.i B 3 ) 6 ~.{.,.A '.X {.~.6 ) ",
"*.=.o ` ].].-.` p ^./.^ (.7 ~.{.,.A '.X {.~.7 (.",
"/.=.o ` ].].-.` p ^./.^ (.7 ~.{.,.A '.X {.~.7 (.",
"*.=.o ` ).m _.:.<.i B 3 ) 6 ~.{.,.A '.X {.~.6 ) ",
"*.=.o ` -._.:.p m ;._ ' ) [ >.P ,.A '.X P >.[ ) ",
"Y Z o ` _.:.W E n ..) +.@...#.$.V [.U X $.#...@.",
"N O o P :.W E r 0 _ R % 1 S T U }.|.|.X U T S 1 ",
"B C o p W E 1.s 2.{ F G H I 9 J 3.4.4.,.J 9 I H ",
"2.n 5.p  .r s < 1 t u v > w x y z A A z y x w > ",
"e f %.h 6.s < 1 ' % & * + k [ 8 l m m l 8 [ k + ",
") 7 8 9 0 < 1 ' % & * = a 1 < b c d d c b < 1 a ",
"@ < [ ..| 1 ' % & * = = 2 3 4 < 5 6 6 5 < 4 3 2 ",
"' ) ! ~ { ' % & * = = = ] ; ^ / ( _ _ ( / ^ ; ] ",
". + @ # $ % & * = = = = - % ; + > , , > + ; % - "};
