/* XPM */
static char * logo_small_xpm[] = {
"64 64 526 2",
"  	c None",
". 	c #998562",
"+ 	c #997D60",
"@ 	c #997B5F",
"# 	c #987D53",
"$ 	c #96773D",
"% 	c #957850",
"& 	c #9A7F5B",
"* 	c #9B805D",
"= 	c #987B60",
"- 	c #9A7F64",
"; 	c #987950",
"> 	c #9B7C53",
", 	c #9C8773",
"' 	c #9B805A",
") 	c #7D7560",
"! 	c #7D674C",
"~ 	c #7F765E",
"{ 	c #DC8085",
"] 	c #7A6449",
"^ 	c #775C3D",
"/ 	c #7A664B",
"( 	c #796754",
"_ 	c #DE706F",
": 	c #DF3533",
"< 	c #E03538",
"[ 	c #DD8490",
"} 	c #DE3E39",
"| 	c #DF4742",
"1 	c #DF6F68",
"2 	c #E0463E",
"3 	c #E13534",
"4 	c #E14441",
"5 	c #9C8753",
"6 	c #9D8951",
"7 	c #DF7070",
"8 	c #DE6D68",
"9 	c #DE6461",
"0 	c #DF4841",
"a 	c #E03734",
"b 	c #E1393C",
"c 	c #E03B3A",
"d 	c #E04B47",
"e 	c #9D8865",
"f 	c #998144",
"g 	c #9C844F",
"h 	c #9E9081",
"i 	c #E3535E",
"j 	c #E13432",
"k 	c #DE8281",
"l 	c #E04545",
"m 	c #DF3D40",
"n 	c #5C9452",
"o 	c #609450",
"p 	c #E43642",
"q 	c #E23A37",
"r 	c #E13A36",
"s 	c #5E9852",
"t 	c #5D9853",
"u 	c #5D9551",
"v 	c #5C954D",
"w 	c #5A9345",
"x 	c #619453",
"y 	c #E59367",
"z 	c #E42334",
"A 	c #E1594F",
"B 	c #E2332E",
"C 	c #DD6E74",
"D 	c #A89160",
"E 	c #A99279",
"F 	c #5C954F",
"G 	c #5B9550",
"H 	c #579548",
"I 	c #5F9346",
"J 	c #759556",
"K 	c #E42D36",
"L 	c #E34643",
"M 	c #E13A3B",
"N 	c #E24C43",
"O 	c #E23A35",
"P 	c #E0474C",
"Q 	c #A88E4F",
"R 	c #A88F4D",
"S 	c #AA927A",
"T 	c #5A934C",
"U 	c #5A944B",
"V 	c #579446",
"W 	c #60974F",
"X 	c #E36B47",
"Y 	c #E2363A",
"Z 	c #E04E49",
"` 	c #E14347",
" .	c #A89260",
"..	c #E0636B",
"+.	c #E13438",
"@.	c #599348",
"#.	c #569648",
"$.	c #589949",
"%.	c #E14948",
"&.	c #DD5244",
"*.	c #DE645B",
"=.	c #DE6867",
"-.	c #E2E4A1",
";.	c #E1E29D",
">.	c #DC766E",
",.	c #E33331",
"'.	c #60955A",
").	c #5E944D",
"!.	c #58954D",
"~.	c #579A43",
"{.	c #669D54",
"].	c #E2E49E",
"^.	c #DFE199",
"/.	c #E2E49F",
"(.	c #E2E49C",
"_.	c #A6A87A",
":.	c #E06F5D",
"<.	c #E03231",
"[.	c #E23238",
"}.	c #E43939",
"|.	c #E43838",
"1.	c #5C9650",
"2.	c #579549",
"3.	c #569A4E",
"4.	c #83A365",
"5.	c #6BA060",
"6.	c #E0E294",
"7.	c #E1E398",
"8.	c #E1E39A",
"9.	c #5E5A50",
"0.	c #E2E49B",
"a.	c #CED18C",
"b.	c #989B6E",
"c.	c #E2363F",
"d.	c #E42F2B",
"e.	c #E43943",
"f.	c #E4302F",
"g.	c #8B9A64",
"h.	c #579953",
"i.	c #579C53",
"j.	c #B2A486",
"k.	c #D8DA8D",
"l.	c #DDDF8F",
"m.	c #E0E197",
"n.	c #9F9B71",
"o.	c #DBDD92",
"p.	c #E2E59C",
"q.	c #E2E494",
"r.	c #A1A36C",
"s.	c #806B4E",
"t.	c #7D6A4D",
"u.	c #807762",
"v.	c #E05B50",
"w.	c #E23F48",
"x.	c #E4353F",
"y.	c #E42E34",
"z.	c #E43831",
"A.	c #E53436",
"B.	c #E43435",
"C.	c #E3413F",
"D.	c #D97268",
"E.	c #5E9E64",
"F.	c #CBB094",
"G.	c #D3D691",
"H.	c #DFE196",
"I.	c #D6DA8D",
"J.	c #D4D788",
"K.	c #D9DC8B",
"L.	c #DFE190",
"M.	c #E1E396",
"N.	c #DBDC92",
"O.	c #A4A475",
"P.	c #A5AC7B",
"Q.	c #7E6742",
"R.	c #7A603C",
"S.	c #7E6F5D",
"T.	c #E03E3D",
"U.	c #E13539",
"V.	c #E43A3D",
"W.	c #E43D3F",
"X.	c #E43436",
"Y.	c #E3423F",
"Z.	c #E32E2C",
"`.	c #E34B4B",
" +	c #E2312F",
".+	c #DF6A69",
"++	c #DC736D",
"@+	c #D3CE89",
"#+	c #DDDC8E",
"$+	c #A29F7B",
"%+	c #969770",
"&+	c #ACAB82",
"*+	c #DCDE96",
"=+	c #C0C388",
"-+	c #CFD385",
";+	c #DCDE8A",
">+	c #E0E190",
",+	c #E1E293",
"'+	c #B5B582",
")+	c #DAD88A",
"!+	c #AAAD7B",
"~+	c #A0A46B",
"{+	c #DE5F5E",
"]+	c #DF5154",
"^+	c #E05858",
"/+	c #E03836",
"(+	c #E13D40",
"_+	c #E33132",
":+	c #E43C3C",
"<+	c #E44847",
"[+	c #E43E3F",
"}+	c #E33638",
"|+	c #E23F3D",
"1+	c #B5B27F",
"2+	c #D3D281",
"3+	c #DDDE8E",
"4+	c #95956C",
"5+	c #DDDE8D",
"6+	c #929268",
"7+	c #DADC91",
"8+	c #CDD089",
"9+	c #C1C285",
"0+	c #C8CE84",
"a+	c #CED183",
"b+	c #D5DA85",
"c+	c #DDDF8A",
"d+	c #DFE08F",
"e+	c #D3CF85",
"f+	c #C1C17F",
"g+	c #ABAC72",
"h+	c #A6AA6D",
"i+	c #A3A770",
"j+	c #E0434D",
"k+	c #E13C34",
"l+	c #E1413A",
"m+	c #E2302B",
"n+	c #E33636",
"o+	c #E43736",
"p+	c #E43938",
"q+	c #E43F3F",
"r+	c #E24044",
"s+	c #E14244",
"t+	c #DF5559",
"u+	c #E2E497",
"v+	c #A8A66E",
"w+	c #C1C17B",
"x+	c #DCDD8F",
"y+	c #9B9B78",
"z+	c #CED384",
"A+	c #A39F7E",
"B+	c #CED089",
"C+	c #D5D78B",
"D+	c #BEBE83",
"E+	c #C7C982",
"F+	c #C8CA80",
"G+	c #C9CD80",
"H+	c #C8C97F",
"I+	c #B8B777",
"J+	c #AFB26D",
"K+	c #ABAC6C",
"L+	c #A9AA6E",
"M+	c #A7AA71",
"N+	c #A6AB75",
"O+	c #E2332B",
"P+	c #E24A44",
"Q+	c #E24237",
"R+	c #E4342B",
"S+	c #E38D69",
"T+	c #E33C3A",
"U+	c #E24240",
"V+	c #DF5A71",
"W+	c #B0A386",
"X+	c #E0E194",
"Y+	c #DFE194",
"Z+	c #A4A47B",
"`+	c #A4A369",
" @	c #AFAE71",
".@	c #D9DA87",
"+@	c #D1D289",
"@@	c #989766",
"#@	c #9E9E6F",
"$@	c #CACB86",
"%@	c #D5D58B",
"&@	c #C2C481",
"*@	c #BFC280",
"=@	c #C2C47E",
"-@	c #C2C37C",
";@	c #B8B975",
">@	c #B2B173",
",@	c #ADAE72",
"'@	c #ABAE74",
")@	c #ADAE75",
"!@	c #BF9F68",
"~@	c #BF9E69",
"{@	c #E33B37",
"]@	c #E23B36",
"^@	c #E3302D",
"/@	c #E3444C",
"(@	c #E14143",
"_@	c #E0665B",
":@	c #909B6C",
"<@	c #DEE491",
"[@	c #E0E495",
"}@	c #9D976B",
"|@	c #AFAB85",
"1@	c #9C9974",
"2@	c #DEE092",
"3@	c #D1D48C",
"4@	c #ABAB7D",
"5@	c #A1A167",
"6@	c #A9A86A",
"7@	c #C6C977",
"8@	c #D8DB8B",
"9@	c #C7C887",
"0@	c #C4C57F",
"a@	c #CFD387",
"b@	c #C0C17E",
"c@	c #B6B778",
"d@	c #B7B97D",
"e@	c #BCBE7C",
"f@	c #B9BA7A",
"g@	c #B3B376",
"h@	c #C0A07D",
"i@	c #BF9E55",
"j@	c #C09E5A",
"k@	c #C09F7C",
"l@	c #E23232",
"m@	c #E24E52",
"n@	c #E24B50",
"o@	c #81855B",
"p@	c #CAD279",
"q@	c #E0E494",
"r@	c #98976A",
"s@	c #D2D692",
"t@	c #9C9A6E",
"u@	c #D2D68C",
"v@	c #D4DA8F",
"w@	c #A1A16A",
"x@	c #A3A569",
"y@	c #B2B474",
"z@	c #CED17A",
"A@	c #C0C179",
"B@	c #BCBB79",
"C@	c #B6B377",
"D@	c #B2B374",
"E@	c #B3B475",
"F@	c #B4B57B",
"G@	c #C0A074",
"H@	c #E23D39",
"I@	c #E14C3D",
"J@	c #DEE2A1",
"K@	c #E2E79F",
"L@	c #E4E8A5",
"M@	c #7D7D5D",
"N@	c #7C7853",
"O@	c #91985E",
"P@	c #DFE38F",
"Q@	c #A7A77C",
"R@	c #B5B181",
"S@	c #B3B182",
"T@	c #C8CA83",
"U@	c #D8DC90",
"V@	c #C8CA8C",
"W@	c #A7A477",
"X@	c #A2A36A",
"Y@	c #AAAB6B",
"Z@	c #AFB16A",
"`@	c #AFB06E",
" #	c #B0B171",
".#	c #B0B174",
"+#	c #B0B077",
"@#	c #B2B178",
"##	c #E04246",
"$#	c #E04C40",
"%#	c #E4E29E",
"&#	c #DFDE9B",
"*#	c #8D8A64",
"=#	c #898660",
"-#	c #DBDC99",
";#	c #E5E7A2",
">#	c #797B59",
",#	c #767754",
"'#	c #828458",
")#	c #CED381",
"!#	c #D7DE90",
"~#	c #9A9969",
"{#	c #9E9E6E",
"]#	c #CDCF8B",
"^#	c #D4D889",
"/#	c #BFC47E",
"(#	c #B2B17F",
"_#	c #A3A56D",
":#	c #A7AA69",
"<#	c #AAAC6E",
"[#	c #ACAD71",
"}#	c #ADAE73",
"|#	c #7B7C52",
"1#	c #E0DF94",
"2#	c #E0DF97",
"3#	c #D9D896",
"4#	c #CDC18E",
"5#	c #BCB986",
"6#	c #E3E59C",
"7#	c #E2E59F",
"8#	c #7D7F5D",
"9#	c #757655",
"0#	c #797A57",
"a#	c #A9AB67",
"b#	c #DBDF8A",
"c#	c #CFD493",
"d#	c #C3C584",
"e#	c #BFC17C",
"f#	c #B2B579",
"g#	c #AEB177",
"h#	c #B0B177",
"i#	c #A7A773",
"j#	c #A7A970",
"k#	c #A8AA70",
"l#	c #767959",
"m#	c #73764C",
"n#	c #CBCC7F",
"o#	c #E5E599",
"p#	c #E3E399",
"q#	c #AEAE77",
"r#	c #D2D292",
"s#	c #E1E297",
"t#	c #D2D397",
"u#	c #777555",
"v#	c #757656",
"w#	c #8C8D5D",
"x#	c #BDBF6D",
"y#	c #B1B471",
"z#	c #ACAD6C",
"A#	c #ADAF6E",
"B#	c #AEAF73",
"C#	c #ACAE77",
"D#	c #9D8440",
"E#	c #9D843F",
"F#	c #9F896F",
"G#	c #71754F",
"H#	c #72754B",
"I#	c #808250",
"J#	c #DFE098",
"K#	c #DEE098",
"L#	c #949665",
"M#	c #ABAC7D",
"N#	c #CCCD86",
"O#	c #DDDE95",
"P#	c #DCDD9D",
"Q#	c #83835D",
"R#	c #767759",
"S#	c #8E8F5F",
"T#	c #A6A666",
"U#	c #A7A86B",
"V#	c #A9AC6E",
"W#	c #ADAF74",
"X#	c #AEB076",
"Y#	c #9E874B",
"Z#	c #9E874E",
"`#	c #71744E",
" $	c #71744B",
".$	c #75794D",
"+$	c #D1CF8A",
"@$	c #DCDD96",
"#$	c #959663",
"$$	c #C5C684",
"%$	c #D7D88F",
"&$	c #C4C47E",
"*$	c #C2C385",
"=$	c #7E7E5A",
"-$	c #9C9E63",
";$	c #A5A669",
">$	c #A8A96D",
",$	c #ADB073",
"'$	c #757752",
")$	c #72754C",
"!$	c #75764E",
"~$	c #9F9B5C",
"{$	c #DBDC95",
"]$	c #BCBD79",
"^$	c #ADAE6D",
"/$	c #ACAD6A",
"($	c #ABAC6E",
"_$	c #94956A",
":$	c #A6A672",
"<$	c #75784E",
"[$	c #767850",
"}$	c #878A58",
"|$	c #A2A464",
"1$	c #A2A566",
"2$	c #A6A86A",
"3$	c #A9AA6C",
"4$	c #ABAC75",
"5$	c #D4AC76",
"6$	c #D3AC70",
"7$	c #D3AC76",
"8$	c #7D8055",
"9$	c #7B8053",
"0$	c #8B8E5B",
"a$	c #979B62",
"b$	c #9E9E69",
"c$	c #A4A571",
"d$	c #A8AA72",
"e$	c #D5AD70",
"f$	c #D4AC6F",
"g$	c #D4AC75",
"h$	c #86895A",
"i$	c #8E9360",
"j$	c #9B9E6D",
"k$	c #D5AD75",
"l$	c #93966A",
"m$	c #AD9162",
"n$	c #AB915E",
"o$	c #AC9263",
"p$	c #AC9265",
"q$	c #AB8F5C",
"r$	c #AB9263",
"s$	c #D7AF70",
"t$	c #D7AF6C",
"u$	c #D7AF75",
"v$	c #C1A376",
"w$	c #C1A375",
"x$	c #C1A374",
"y$	c #C1A34E",
"z$	c #C1A364",
"A$	c #C1A368",
"                                                                                                                                ",
"                                                                                                                                ",
"                                                                                                                                ",
"                                                                                                                                ",
"                                                                                                                                ",
"                                                                                                                                ",
"                                                                                                                                ",
"                                                                                                                                ",
"                                                                                                                                ",
"                                                                            . + @                                               ",
"                                                                            # $ %                                               ",
"                                                & *                           =                                                 ",
"                                              - ; > ,                                                                           ",
"                                                '                                                     ) ! ~                     ",
"                                                                                                {     ] ^ /                     ",
"                                                                                                        (                       ",
"                                                                                        _ : <     [                             ",
"                                                                                    } |   1 2 3 4                               ",
"                      5 6                                                   7 8 9   0 a         b c d                           ",
"                    e f g h                                               i           j     k     l m                           ",
"                      e                                         n o       p           q r                                       ",
"                                                          s t   u v w x y z       A     B     C                       D E       ",
"                                                          F G       H I J K L     M N   O P                           Q R S     ",
"                                                        T U           V W X Y     Z `                                  .E       ",
"                                              ..+.      T @.          #.$.  %.&.*.=.            -.;.                            ",
"                                        >.      ,.      '.).!.        ~.{.                  ].^./.(._.                          ",
"                                    :.    <.[.  }.|.      1.2.3.      4.5.              6.7.8.9.].0.a.b.                        ",
"                                    c.      d.e.  f.      g.h.i.j.                    k.l.6.m.n.o.p.q.r.                        ",
"      s.t.u.              v.w.x.    y.      z.A.  B.C.    D.  E.    F.      G.H.I.    J.K.L.M.N.O.(.q.P.                        ",
"      Q.R.S.            T.U.  V.W.  X.Y.      Z.  `. +.+++            @+#+$+%+&+*+=+  -+J.;+>+,+'+7.)+!+~+                      ",
"              {+]+^+/+(+  _+  :+<+  [+}+      |+                    1+2+3+4+5+6+7+8+9+0+a+b+c+d+e+f+g+h+i+                      ",
"              j+k+  l+m+  n+o+p+q+    r+s+  t+              u+      v+w+x+y+z+A+B+C+D+E+F+G+H+I+J+K+L+M+N+                      ",
"                O+  P+Q+    R+S+T+U+      V+              W+X+Y+  Z+`+ @.@+@@@#@$@%@&@*@=@-@;@>@,@'@)@                !@~@      ",
"                {@]@        ^@/@  (@_@            :@<@[@}@|@1@2@3@4@5@6@7@8@9@0@a@b@c@d@e@f@c@g@                    h@i@j@k@    ",
"                  l@        m@n@                  o@p@q@r@s@t@u@v@  w@x@y@z@A@B@C@D@E@F@                              G@        ",
"                  H@I@                  J@K@L@  M@N@O@P@Q@R@S@T@U@V@W@X@Y@Z@`@ #.#+#@#                                          ",
"                  ##$#            %#&#*#=#-#;#  >#,#'#)#!#~#{#]#^#/#(#_#:#<#[#}#                                                ",
"                                |#1#2#3#4#5#6#7#8#9#0#a#b#c#d#e#f#g#h#i#j#k#                                                    ",
"                              l#m#n#o#p#q#r#m.s#t#u#v#w#x#y#z#A#B#C#C#                                                          ",
"      D#E#F#                  G#H#I#J#K#L#M#N#O#P#Q#R#S#T#U#V#W#X#                                                              ",
"      Y#Z#                    `# $.$+$@$#$$$%$&$*$  =$-$;$>$,$                                                                  ",
"                              '$)$!$~${$B+]$^$/$($  _$:$                                                                        ",
"                                <$[$}$|$1$2$3$<#4$                                                    5$6$7$                    ",
"                                8$9$0$a$b$c$d$                                                        e$f$g$                    ",
"                                  h$i$j$                                                                k$                      ",
"                                  l$                                                                                            ",
"                                                                                                                                ",
"                    m$n$o$                                                                                                      ",
"                    p$q$r$                                                                                                      ",
"                                                                            s$t$u$                                              ",
"                                                v$w$                        s$t$u$                                              ",
"                                              x$y$z$                                                                            ",
"                                                A$                                                                              ",
"                                                                                                                                ",
"                                                                                                                                ",
"                                                                                                                                ",
"                                                                                                                                ",
"                                                                                                                                ",
"                                                                                                                                ",
"                                                                                                                                ",
"                                                                                                                                ",
"                                                                                                                                ",
"                                                                                                                                ",
"                                                                                                                                "};
