/* XPM */
static char * pause_xpm[] = {
"24 24 67 1",
" 	c None",
".	c #D7D7D7",
"+	c #D0D0D0",
"@	c #C8C8C8",
"#	c #C0C0C0",
"$	c #BABABA",
"%	c #B7B7B7",
"&	c #D3D3D3",
"*	c #BBBBBB",
"=	c #AFAFAF",
"-	c #A5A5A5",
";	c #A0A0A0",
">	c #CDCDCD",
",	c #BEBEBE",
"'	c #ACACAC",
")	c #9A9A9A",
"!	c #8D8D8D",
"~	c #878787",
"{	c #C7C7C7",
"]	c #B2B2B2",
"^	c #828282",
"/	c #717171",
"(	c #696969",
"_	c #A7A7A7",
":	c #888888",
"<	c #6C6C6C",
"[	c #585858",
"}	c #4E4E4E",
"|	c #9D9D9D",
"1	c #797979",
"2	c #595959",
"3	c #434343",
"4	c #383838",
"5	c #B5B5B5",
"6	c #949494",
"7	c #6D6D6D",
"8	c #4A4A4A",
"9	c #0D0D0D",
"0	c #101010",
"a	c #121212",
"b	c #8E8E8E",
"c	c #656565",
"d	c #3F3F3F",
"e	c #151515",
"f	c #272727",
"g	c #282828",
"h	c #1E1E1E",
"i	c #B0B0B0",
"j	c #8A8A8A",
"k	c #5F5F5F",
"l	c #393939",
"m	c #363636",
"n	c #3D3D3D",
"o	c #AEAEAE",
"p	c #5C5C5C",
"q	c #353535",
"r	c #161616",
"s	c #424242",
"t	c #5A5A5A",
"u	c #333333",
"v	c #ADADAD",
"w	c #868686",
"x	c #3A3A3A",
"y	c #171717",
"z	c #2F2F2F",
"A	c #141414",
"B	c #191919",
".+@#$%%$#@+..+@#$%%$#@+.",
"&@*=-;;-=*@&&@*=-;;-=*@&",
">,')!~~!)',>>,')!~~!)',>",
"{])^/((/^)]{{])^/((/^)]{",
"#_:<[}}[<:_##_:<[}}[<:_#",
"$|12344321|$$|12344321|$",
"5678900a87655678900a8765",
"]bcdefghdcb]]bcdefghdcb]",
"ijklemnhlkjiijklemnhlkji",
"o:pqr4shqp:oo:pqr4shqp:o",
"o~tur4shut~oo~tur4shut~o",
"vwtur4shutwvvwtur4shutwv",
"vwtur4shutwvvwtur4shutwv",
"o~tur4shut~oo~tur4shut~o",
"o:pqr4shqp:oo:pqr4shqp:o",
"ijklexdhlkjiijklexdhlkji",
"]bcdyzzhdcb]]bcdyzzhdcb]",
"5678ABBr87655678ABBr8765",
"$|12344321|$$|12344321|$",
"#_:<[}}[<:_##_:<[}}[<:_#",
"{])^/((/^)]{{])^/((/^)]{",
">,')!~~!)',>>,')!~~!)',>",
"&@*=-;;-=*@&&@*=-;;-=*@&",
".+@#$%%$#@+..+@#$%%$#@+."};
