/* XPM */
static char * play_xpm[] = {
"24 24 127 2",
"  	c None",
". 	c #D1D1D1",
"+ 	c #CACACA",
"@ 	c #C3C3C3",
"# 	c #BDBDBD",
"$ 	c #B9B9B9",
"% 	c #B8B8B8",
"& 	c #BEBEBE",
"* 	c #C8C8C8",
"= 	c #CDCDCD",
"- 	c #D2D2D2",
"; 	c #D6D6D6",
"> 	c #D9D9D9",
", 	c #DBDBDB",
"' 	c #DCDCDC",
") 	c #DDDDDD",
"! 	c #DEDEDE",
"~ 	c #C9C9C9",
"{ 	c #BFBFBF",
"] 	c #B3B3B3",
"^ 	c #AAAAAA",
"/ 	c #A3A3A3",
"( 	c #A1A1A1",
"_ 	c #A9A9A9",
": 	c #B0B0B0",
"< 	c #C0C0C0",
"[ 	c #C7C7C7",
"} 	c #B2B2B2",
"| 	c #A2A2A2",
"1 	c #939393",
"2 	c #8A8A8A",
"3 	c #868686",
"4 	c #888888",
"5 	c #8E8E8E",
"6 	c #979797",
"7 	c #ADADAD",
"8 	c #B7B7B7",
"9 	c #A4A4A4",
"0 	c #909090",
"a 	c #7D7D7D",
"b 	c #6F6F6F",
"c 	c #696969",
"d 	c #6A6A6A",
"e 	c #707070",
"f 	c #7B7B7B",
"g 	c #878787",
"h 	c #949494",
"i 	c #ACACAC",
"j 	c #AFAFAF",
"k 	c #7F7F7F",
"l 	c #686868",
"m 	c #212121",
"n 	c #414141",
"o 	c #4E4E4E",
"p 	c #545454",
"q 	c #5D5D5D",
"r 	c #787878",
"s 	c #D3D3D3",
"t 	c #DADADA",
"u 	c #727272",
"v 	c #595959",
"w 	c #111111",
"x 	c #222222",
"y 	c #242424",
"z 	c #313131",
"A 	c #424242",
"B 	c #4D4D4D",
"C 	c #5B5B5B",
"D 	c #777777",
"E 	c #C1C1C1",
"F 	c #CFCFCF",
"G 	c #D4D4D4",
"H 	c #2F2F2F",
"I 	c #262626",
"J 	c #2D2D2D",
"K 	c #404040",
"L 	c #959595",
"M 	c #BABABA",
"N 	c #C5C5C5",
"O 	c #D8D8D8",
"P 	c #838383",
"Q 	c #646464",
"R 	c #474747",
"S 	c #333333",
"T 	c #373737",
"U 	c #2C2C2C",
"V 	c #797979",
"W 	c #898989",
"X 	c #999999",
"Y 	c #A8A8A8",
"Z 	c #A0A0A0",
"` 	c #828282",
" .	c #626262",
"..	c #434343",
"+.	c #444444",
"@.	c #202020",
"#.	c #818181",
"$.	c #A6A6A6",
"%.	c #9F9F9F",
"&.	c #606060",
"*.	c #515151",
"=.	c #484848",
"-.	c #454545",
";.	c #565656",
">.	c #808080",
",.	c #969696",
"'.	c #ABABAB",
").	c #555555",
"!.	c #232323",
"~.	c #393939",
"{.	c #B6B6B6",
"].	c #C6C6C6",
"^.	c #676767",
"/.	c #292929",
"(.	c #9C9C9C",
"_.	c #C4C4C4",
":.	c #9E9E9E",
"<.	c #5F5F5F",
"[.	c #636363",
"}.	c #989898",
"|.	c #4C4C4C",
"1.	c #5A5A5A",
"2.	c #2B2B2B",
"3.	c #8F8F8F",
"4.	c #7C7C7C",
"5.	c #B1B1B1",
"6.	c #858585",
". + @ # $ % $ & @ * = - ; > , ' ) ! ! ! ! ! ! ! ",
"~ { ] ^ / ( / _ : $ < [ = - ; > , ' ) ! ! ! ! ! ",
"< } | 1 2 3 4 5 6 | 7 8 < [ = - ; > , ' ) ! ! ! ",
"8 9 0 a b c d e f g h ( i 8 < [ = - ; > , ' ) ! ",
"j 6 k l m n o p q d r 3 h ( i 8 < [ = s ; t , ) ",
"_ 5 u v w x y z A B C l D 3 h ( 7 % E ~ F G > , ",
"9 4 c B w x H I m J K B C l D 3 L | j M N = G O ",
"( P Q R w x S T H I m U K B C c V W X Y 8 @ = G ",
"Z `  ...w x S +.K T H I @.J K o q b #.h $.8 N F ",
"%.#.&.n w x S +.*.=.K T H I m H -.;.d >.,.'.# + ",
"%.>.&.n w x S +.).v *.=.K T H I !.~.v e 2 ( {.].",
"%.>.&.n w x S +.).^. .v *.=.K T H I /.;.` (.} _.",
":.>.<.K w x S +.).^.[.v *.=.K T H I /.;.` (.} _.",
"%.>.&.n w x S +.).v ).=.+.T S I I ~.v e 2 ( {.].",
"%.#.&.n w x S +.*.=.+.T S I y H -.;.d >.,.'.# + ",
"Z `  ...w x S +.+.T S I y U K B q b #.h $.8 N F ",
"( P Q R w x S T S I y U K B C c V W }.Y 8 @ = G ",
"9 4 c B w x H I y J K |.1.l D 3 h | j M N = G O ",
"Y 5 u v w I !.z n B C l D 3 h ( i % E ~ F G > , ",
"j 6 k l 2.A o p q c D 3 1 Z i 8 < [ = s ; t , ) ",
"8 9 3.4.b c d e f g h ( i 8 < [ = - ; > , ' ) ! ",
"< 5.( 1 2 6.g 5 6 | 7 8 < [ = - ; > , ' ) ! ! ! ",
"~ { ] ^ / ( / Y : $ < [ = - ; > , ' ) ! ! ! ! ! ",
". + @ # $ % $ & @ * = - ; > , ' ) ! ! ! ! ! ! ! "};
