/* XPM */
static char * r4d2_0_xpm[] = {
"64 64 227 2",
"  	c None",
". 	c #FF00FF",
"+ 	c #4C3942",
"@ 	c #423E37",
"# 	c #6D2F63",
"$ 	c #47473B",
"% 	c #505043",
"& 	c #515144",
"* 	c #4D4D42",
"= 	c #530750",
"- 	c #613B55",
"; 	c #5E5E51",
"> 	c #69695B",
", 	c #626255",
"' 	c #20041F",
") 	c #0F0F0D",
"! 	c #410E3D",
"~ 	c #4E0F4B",
"{ 	c #513B47",
"] 	c #7A3A6D",
"^ 	c #797968",
"/ 	c #B6A9A6",
"( 	c #9C9C8B",
"_ 	c #858274",
": 	c #150B12",
"< 	c #9E0B9A",
"[ 	c #563C4B",
"} 	c #593E4D",
"| 	c #FE03FD",
"1 	c #4E4643",
"2 	c #694D5B",
"3 	c #5D4051",
"4 	c #636355",
"5 	c #828270",
"6 	c #C257B8",
"7 	c #7A2C70",
"8 	c #555548",
"9 	c #747462",
"0 	c #9D9D8B",
"a 	c #D070C8",
"b 	c #44443A",
"c 	c #5E5E50",
"d 	c #9E9E8C",
"e 	c #C468B8",
"f 	c #BC3DB3",
"g 	c #7F5370",
"h 	c #514E44",
"i 	c #666657",
"j 	c #838372",
"k 	c #8F8F7D",
"l 	c #3D3934",
"m 	c #59534D",
"n 	c #56484B",
"o 	c #80806D",
"p 	c #956586",
"q 	c #432C3B",
"r 	c #282822",
"s 	c #3D3334",
"t 	c #4E2F46",
"u 	c #7C746A",
"v 	c #979786",
"w 	c #723D65",
"x 	c #FF01FF",
"y 	c #FE01FE",
"z 	c #1B1517",
"A 	c #3A3A30",
"B 	c #434339",
"C 	c #414136",
"D 	c #621C5B",
"E 	c #89577C",
"F 	c #D6B9C9",
"G 	c #6D665E",
"H 	c #807370",
"I 	c #955988",
"J 	c #B868AD",
"K 	c #A65F9A",
"L 	c #866D76",
"M 	c #4B4B40",
"N 	c #090907",
"O 	c #32322A",
"P 	c #5B5B4D",
"Q 	c #5D5D4E",
"R 	c #424237",
"S 	c #48433E",
"T 	c #6A395F",
"U 	c #565649",
"V 	c #5A5A4D",
"W 	c #5D5D50",
"X 	c #6A6A5B",
"Y 	c #666659",
"Z 	c #656556",
"` 	c #616152",
" .	c #525246",
"..	c #313129",
"+.	c #2E0B2B",
"@.	c #1D141A",
"#.	c #1B1B17",
"$.	c #262620",
"%.	c #2E2E26",
"&.	c #2F2F27",
"*.	c #2E2E27",
"=.	c #303029",
"-.	c #626253",
";.	c #505042",
">.	c #1F1F1A",
",.	c #501F48",
"'.	c #3A2033",
").	c #3D3D33",
"!.	c #3E3E35",
"~.	c #3E3E34",
"{.	c #3C3C32",
"].	c #2F2F28",
"^.	c #24241F",
"/.	c #171712",
"(.	c #11110E",
"_.	c #181814",
":.	c #21211C",
"<.	c #2C2C24",
"[.	c #34342C",
"}.	c #46463B",
"|.	c #49493D",
"1.	c #4B4B3E",
"2.	c #5F5F52",
"3.	c #44363A",
"4.	c #65305B",
"5.	c #1B1217",
"6.	c #5F5F51",
"7.	c #23231E",
"8.	c #151512",
"9.	c #404035",
"0.	c #422C3A",
"a.	c #591E51",
"b.	c #FA04F9",
"c.	c #281F22",
"d.	c #2B1B26",
"e.	c #301B2B",
"f.	c #351B30",
"g.	c #3E1839",
"h.	c #25251F",
"i.	c #31312A",
"j.	c #3B3B32",
"k.	c #535347",
"l.	c #6D6D5E",
"m.	c #7A7A69",
"n.	c #8F8F7F",
"o.	c #C8C8B9",
"p.	c #BC82B1",
"q.	c #2C2C25",
"r.	c #0B0B0A",
"s.	c #2E2E25",
"t.	c #745D65",
"u.	c #CC0EC8",
"v.	c #481742",
"w.	c #260125",
"x.	c #10100D",
"y.	c #1F1F1B",
"z.	c #282821",
"A.	c #303028",
"B.	c #3A3A31",
"C.	c #48403E",
"D.	c #534748",
"E.	c #6D5A5F",
"F.	c #7C6C6C",
"G.	c #958685",
"H.	c #A8A599",
"I.	c #A8A497",
"J.	c #4D1747",
"K.	c #171713",
"L.	c #370D34",
"M.	c #272720",
"N.	c #2A2A23",
"O.	c #66375B",
"P.	c #070306",
"Q.	c #22121E",
"R.	c #62135D",
"S.	c #3D093B",
"T.	c #171214",
"U.	c #1E071C",
"V.	c #161612",
"W.	c #555549",
"X.	c #8D5780",
"Y.	c #0B0B09",
"Z.	c #1E1E19",
"`.	c #47473C",
" +	c #767666",
".+	c #B182A4",
"++	c #404036",
"@+	c #11110F",
"#+	c #393930",
"$+	c #57574B",
"%+	c #7C7C6A",
"&+	c #A58997",
"*+	c #35352E",
"=+	c #737362",
"-+	c #828272",
";+	c #856276",
">+	c #141411",
",+	c #FD33FB",
"'+	c #1C1518",
")+	c #999988",
"!+	c #AEAE9E",
"~+	c #36362E",
"{+	c #939383",
"]+	c #BCBCAC",
"^+	c #460743",
"/+	c #1A1716",
"(+	c #7D7D6C",
"_+	c #D1D1C4",
":+	c #E2D0D7",
"<+	c #3C3C33",
"[+	c #BDBDAE",
"}+	c #EDEDE2",
"|+	c #1A1717",
"1+	c #4E4E43",
"2+	c #959586",
"3+	c #D8D8CA",
"4+	c #F4B6ED",
"5+	c #1A1A16",
"6+	c #37372F",
"7+	c #626256",
"8+	c #B6B6A6",
"9+	c #E3E3D7",
"0+	c #B4B4A5",
"a+	c #EDAAE4",
"b+	c #48483D",
"c+	c #726962",
"d+	c #1E1E1A",
". . . . . . . . . . . . . . . . . . . . . . . . . . . . . . . . . . . . . . . . . . . . . . . . . . . . . . . . . . . . . . . . ",
". . . . . . . . . . . . . . . . . . . . . . . . . . . . . . . . . . . . . . . . . . . . . . . . . . . . . . . . . . . . . . . . ",
". . . . . . . . . . . . . . . . . . . . . . . . . . . . . . . . . . . . . . . . . . . . . . . . . . . . . . . . . . . . . . . . ",
". . . . . . . . . . . . . . . . . . . . . . . . . . . . . . . . . . . . . . . . . . . . . . . . . . . . . . . . . . . . . . . . ",
". . . . . . . . . . . . . . . . . . . . . . . . . . . . . . . . . . . . . . . . . . . . . . . . . . . . . . . . . . . . . . . . ",
". . . . . . . . . . . . . . . . . . . . . . . . . . . . . . . . . . . . . . . . . . . . . . . . . . . . . . . . . . . . . . . . ",
". . . . . . . . . . . . . . . . . . . . . . . . . . . . . . . . . . . . . . . . . . . . . . . . . . . . . . . . . . . . . . . . ",
". . . . . . . . . . . . . . . . . . . . . . . . . . . . . . . . . . . . . . . . . . . . . . . . . . . . . . . . . . . . . . . . ",
". . . . . . . . . . . . . . . . . . . . . . . . . . . . . . . . . . . . . . . . . . . . . . . . . . . . . . . . . . . . . . . . ",
". . . . . . . . . . . . . . . . . . . . . . . . . . . . . . . . . . . . . . . . . . . . . . . . . . . . . . . . . . . . . . . . ",
". . . . . . . . . . . . . . . . . . . . . . . . . . . . . . . . . . . . . . . . . . . . . . . . . . . . . . . . . . . . . . . . ",
". . . . . . . . . . . . . . . . . . . . . . . . . . . . . . . . . . . . . . . . . . . . . . . . . . . . . . . . . . . . . . . . ",
". . . . . . . . . . . . . . . . . . . . . . . . . . . . . . . . . . . . . . . . . . . . . . . . . . . . . . . . . . . . . . . . ",
". . . . . . . . . . . . . . . . . . . . . . . . . . . . . . . . . . . . . . . . . . . . . . + @ . . . . . . . . . . . . . . . . ",
". . . . . . . . . . . . . . . . . . . . . . . . . . . . . . . . . . . . . . . . . . . . # $ % & * . . . . . . . . . . . . . . . ",
". . . . . . . . . . . . . . . . . . . . . . . . = . . . . . . . . . . . . . . . . . . - ; > , > ; . . . . . . . . . . . . . . . ",
". . . . . . . . . . . . . . . . . . . . . . ' ) ! ~ . . . . . . . . . . . . . . . . { ] ^ / ( _ . . . . . . . . . . . . . . . . ",
". . . . . . . . . . . . . . . . . . . . . . : . . . < . . . . . . . . . . . . . . [ . . . . . . . . . . . . . . . . . . . . . . ",
". . . . . . . . . . . . . . . . . . . . . . . . . . . . . . . . . . . . . . . . } . . . . . | . . . . . . . . . . . . . . . . . ",
". . . . . . . . . . . . . . . . . . . . . . . . . . . . . . . . . . . . . . . 1 2 . . . . . . . . . . . . . . . . . . . . . . . ",
". . . . . . . . . . . . . . . . . . . . . . . . . . . . . . . . . . . . . . 3 4 5 6 . . . . . . . . . . . . . . . . . . . . . . ",
". . . . . . . . . . . . . . . . . . . . . . . . . . . . . . . . . . . . . 7 8 9 0 a . . . . . . . . . . . . . . . . . . . . . . ",
". . . . . . . . . . . . . . . . . . . . . . . . . . . . . . . . . . . . . b c 5 d e . . . . . . . . . . . . . . . . . . . . . . ",
". . . . . . . . . . . . . . . . . . . . . . . . . . . . . f g . . . . . . h i j k . . . . . . . . . . . . . . . . . . . . . . . ",
". . . . . . . . . . . . . . . . . . . . . . . . . . . l m 4 n . . . . . . 4 4 o p . . . . . . . . . . . . . . . . . . . . . . . ",
". . . . . . . . . . . . . . . . . . . . . . . . . . . . . q r s t . . . u v w . . . . . . . . . . . . . . x y . . . . . . . . . ",
". . . . . . . . . . . . . . . . . . . . . . . . . . . . . . z A B C D E F . . . . . . . . G H I . . . . . J K L > M . . . . . . ",
". . . . . . . . . . . . . . . . . . . . . . . . . . . . . . N O P Q R S . . . . . . T U % M V W ; X Y i Z Y `  .b ... . . . . . ",
". . . . . . . . . . . . . +.@.#.$.%.&.&.*.. . . . . . . . . ) =.U -.;.>.,.. . . . . . . . '.).!.!.~.~.R C ~.{.].^./.. . . . . . ",
". . . . . . . . . . . (._.:.<.[.~.}.M |.1.2.}.O 3.4.. . . . 5...% 6.7.8.9.0.a.. b.. . . . . . . . c.d.e.f.g.. . . . . . . . . . ",
". . . . . . . . . . /.>.h.i.j.B k.` l.m.n.o.p.. . . . . . . . i.B q.r.s.t.u.v.!.. . . . . . . . . . . . . . . . . . . . . . . . ",
". . . . . . . . w.x.y.z.A.B.C.D.E.F.G.H.I.. . . . . . . . . . J._.K.$.9.. . . L.M.N.9.O.. . . . . . . . . . . . . . . . . . . . ",
". . . . . . . . P.Q.R.. . . . . . . . . . . . . . . . . . . . S._.r [.R . . . . T.>.[.b . . . . . . . . . . . . . . . . . . . . ",
". . . . . . . . . . . . . . . . . . . . . . . . . . . . . . . #.q.j.|. .. . . . U.V.N.9.W.X.. . . . . . . . . . . . . . . . . . ",
". . . . . . . . . . . . . . . . . . . . . . . . . . . . . . K.=.C & P Q . . . . . Y.Z.[.`. +.+. . . . . . . . . . . . . . . . . ",
". . . . . . . . . . . . . . . . . . . . . . . . . . . . . . $.++* 6.X . . . . . . . @+M.#+$+%+&+. . . . . . . . . . . . . . . . ",
". . . . . . . . . . . . . . . . . . . . . . . . . . . . . >.*+ .=+-+;+. . . . . . . . >+M.#+M . . ,+. . . . . . . . . . . . . . ",
". . . . . . . . . . . . . . . . . . . . . . . . . . . . '+N.}.X )+!+. . . . . . . . . . @+y.. . . x . . . . . . . . . . . . . . ",
". . . . . . . . . . . . . . . . . . . . . . . . . . . . y.~+ .{+]+. . . . . . . . . . . . ^+. . . . . . . . . . . . . . . . . . ",
". . . . . . . . . . . . . . . . . . . . . . . . . . . /+q.B (+_+:+. . . . . . . . . . . . . . . . . . . . . . . . . . . . . . . ",
". . . . . . . . . . . . . . . . . . . . . . . . . . . 7.<+> [+}+. . . . . . . . . . . . . . . . . . . . . . . . . . . . . . . . ",
". . . . . . . . . . . . . . . . . . . . . . . . . . |+=.1+2+3+4+. . . . . . . . . . . . . . . . . . . . . . . . . . . . . . . . ",
". . . . . . . . . . . . . . . . . . . . . . . . . . 5+6+7+8+9+. . . . . . . . . . . . . . . . . . . . . . . . . . . . . . . . . ",
". . . . . . . . . . . . . . . . . . . . . . . . . . #.%. .0+a+. . . . . . . . . . . . . . . . . . . . . . . . . . . . . . . . . ",
". . . . . . . . . . . . . . . . . . . . . . . . . . y...b+c+. . . . . . . . . . . . . . . . . . . . . . . . . . . . . . . . . . ",
". . . . . . . . . . . . . . . . . . . . . . . . . . d+].C . . . . . . . . . . . . . . . . . . . . . . . . . . . . . . . . . . . ",
". . . . . . . . . . . . . . . . . . . . . . . . . . . . . . . . . . . . . . . . . . . . . . . . . . . . . . . . . . . . . . . . ",
". . . . . . . . . . . . . . . . . . . . . . . . . . . . . . . . . . . . . . . . . . . . . . . . . . . . . . . . . . . . . . . . ",
". . . . . . . . . . . . . . . . . . . . . . . . . . . . . . . . . . . . . . . . . . . . . . . . . . . . . . . . . . . . . . . . ",
". . . . . . . . . . . . . . . . . . . . . . . . . . . . . . . . . . . . . . . . . . . . . . . . . . . . . . . . . . . . . . . . ",
". . . . . . . . . . . . . . . . . . . . . . . . . . . . . . . . . . . . . . . . . . . . . . . . . . . . . . . . . . . . . . . . ",
". . . . . . . . . . . . . . . . . . . . . . . . . . . . . . . . . . . . . . . . . . . . . . . . . . . . . . . . . . . . . . . . ",
". . . . . . . . . . . . . . . . . . . . . . . . . . . . . . . . . . . . . . . . . . . . . . . . . . . . . . . . . . . . . . . . ",
". . . . . . . . . . . . . . . . . . . . . . . . . . . . . . . . . . . . . . . . . . . . . . . . . . . . . . . . . . . . . . . . ",
". . . . . . . . . . . . . . . . . . . . . . . . . . . . . . . . . . . . . . . . . . . . . . . . . . . . . . . . . . . . . . . . ",
". . . . . . . . . . . . . . . . . . . . . . . . . . . . . . . . . . . . . . . . . . . . . . . . . . . . . . . . . . . . . . . . ",
". . . . . . . . . . . . . . . . . . . . . . . . . . . . . . . . . . . . . . . . . . . . . . . . . . . . . . . . . . . . . . . . ",
". . . . . . . . . . . . . . . . . . . . . . . . . . . . . . . . . . . . . . . . . . . . . . . . . . . . . . . . . . . . . . . . ",
". . . . . . . . . . . . . . . . . . . . . . . . . . . . . . . . . . . . . . . . . . . . . . . . . . . . . . . . . . . . . . . . ",
". . . . . . . . . . . . . . . . . . . . . . . . . . . . . . . . . . . . . . . . . . . . . . . . . . . . . . . . . . . . . . . . ",
". . . . . . . . . . . . . . . . . . . . . . . . . . . . . . . . . . . . . . . . . . . . . . . . . . . . . . . . . . . . . . . . ",
". . . . . . . . . . . . . . . . . . . . . . . . . . . . . . . . . . . . . . . . . . . . . . . . . . . . . . . . . . . . . . . . ",
". . . . . . . . . . . . . . . . . . . . . . . . . . . . . . . . . . . . . . . . . . . . . . . . . . . . . . . . . . . . . . . . ",
". . . . . . . . . . . . . . . . . . . . . . . . . . . . . . . . . . . . . . . . . . . . . . . . . . . . . . . . . . . . . . . . "};
