/* XPM */
static char * r4d2_0_mask_xpm[] = {
"64 64 17 1",
" 	c None",
".	c #FFFFFF",
"+	c #000000",
"@	c #171717",
"#	c #010101",
"$	c #060606",
"%	c #707070",
"&	c #FEFEFE",
"*	c #090909",
"=	c #030303",
"-	c #202020",
";	c #040404",
">	c #FDFDFD",
",	c #BEBEBE",
"'	c #0C0C0C",
")	c #E2E2E2",
"!	c #0B0B0B",
"................................................................",
"................................................................",
"................................................................",
"................................................................",
"................................................................",
"................................................................",
"................................................................",
"................................................................",
"................................................................",
"................................................................",
"................................................................",
"................................................................",
"................................................................",
"..............................................++................",
"............................................+++++...............",
"........................@..................++++++...............",
"......................++#$................++++++................",
"......................+...%..............+......................",
"........................................+.....&.................",
".......................................++.......................",
"......................................+++*......................",
".....................................#+++=......................",
".....................................++++#......................",
".............................-+......++++.......................",
"...........................++++......++++.......................",
".............................++++...+++.........................",
"..............................++++;++........+++.....+++++......",
"..............................++++++......++++++++++++++++......",
".............++++++++.........+++++++........+++++++++++++......",
"...........+++++++++++++++....+++++++++.>........+++++..........",
"..........+++++++++++++........++++++,++........................",
"........=++++++++++++..........+++++...+++++....................",
"........++'....................;++++....++++....................",
"...............................+++++....++++++..................",
"..............................++++++.....++++++.................",
"..............................+++++.......++++++................",
".............................++++++........++++..)..............",
"............................++++++..........++..................",
"............................+++++............!..................",
"...........................++++++...............................",
"...........................+++++................................",
"..........................++++++................................",
"..........................+++++.................................",
"..........................+++++.................................",
"..........................++++..................................",
"..........................+++...................................",
"................................................................",
"................................................................",
"................................................................",
"................................................................",
"................................................................",
"................................................................",
"................................................................",
"................................................................",
"................................................................",
"................................................................",
"................................................................",
"................................................................",
"................................................................",
"................................................................",
"................................................................",
"................................................................",
"................................................................",
"................................................................"};
