/* XPM */
static char * r4d2_xpm[] = {
"64 64 259 2",
"  	c None",
". 	c #FF00FF",
"+ 	c #F801F8",
"@ 	c #470C46",
"# 	c #22221E",
"$ 	c #353530",
"% 	c #41413A",
"& 	c #4B4B43",
"* 	c #694762",
"= 	c #622E5E",
"- 	c #4A4A42",
"; 	c #595950",
"> 	c #65655B",
", 	c #67675C",
"' 	c #6F4F67",
") 	c #F401F4",
"! 	c #5D2459",
"~ 	c #43433D",
"{ 	c #57574E",
"] 	c #6D6D62",
"^ 	c #6A6A5F",
"/ 	c #FE00FE",
"( 	c #52444B",
"_ 	c #64645A",
": 	c #79796C",
"< 	c #858577",
"[ 	c #8A8A7C",
"} 	c #89777D",
"| 	c #616157",
"1 	c #717166",
"2 	c #7C7C6F",
"3 	c #7E7E71",
"4 	c #7C7A6F",
"5 	c #4E3748",
"6 	c #6B6B60",
"7 	c #8B8B7C",
"8 	c #9B9B8B",
"9 	c #A2A291",
"0 	c #A69696",
"a 	c #7A5871",
"b 	c #7A7A6E",
"c 	c #858578",
"d 	c #737367",
"e 	c #7E7471",
"f 	c #65505D",
"g 	c #7A7A6D",
"h 	c #A1A190",
"i 	c #B5B5A3",
"j 	c #B0AB9E",
"k 	c #3A2137",
"l 	c #5A5A50",
"m 	c #909081",
"n 	c #828274",
"o 	c #8E7E81",
"p 	c #5B4D53",
"q 	c #5B5952",
"r 	c #5E5E55",
"s 	c #3F1D3C",
"t 	c #52524A",
"u 	c #8E8E7F",
"v 	c #A4A493",
"w 	c #9E8290",
"x 	c #6C5763",
"y 	c #7B756F",
"z 	c #796D6D",
"A 	c #806076",
"B 	c #FC03FC",
"C 	c #572554",
"D 	c #5B5B52",
"E 	c #747468",
"F 	c #878779",
"G 	c #89897B",
"H 	c #9E9E8F",
"I 	c #ABAB9A",
"J 	c #4C4C44",
"K 	c #6C6C61",
"L 	c #AAAA9A",
"M 	c #C2C2AF",
"N 	c #B5B5A2",
"O 	c #C8C8B5",
"P 	c #B0B0A0",
"Q 	c #9E9E8E",
"R 	c #A9A998",
"S 	c #A7A796",
"T 	c #A1A191",
"U 	c #959586",
"V 	c #888879",
"W 	c #7E7771",
"X 	c #441B42",
"Y 	c #515149",
"Z 	c #99998A",
"` 	c #A4A494",
" .	c #ADAD9C",
"..	c #D2D2C6",
"+.	c #CEC7C5",
"@.	c #53534C",
"#.	c #AAAA9D",
"$.	c #C1C1B1",
"%.	c #D6D6C3",
"&.	c #BCBCA9",
"*.	c #9D9D8F",
"=.	c #B3B1A6",
"-.	c #C5C5B3",
";.	c #DBDBC9",
">.	c #D8D8C6",
",.	c #CFCFBB",
"'.	c #C4C4B1",
").	c #B3B3A1",
"!.	c #ACAC9B",
"~.	c #A2A292",
"{.	c #925D88",
"].	c #32272E",
"^.	c #41413B",
"/.	c #56564D",
"(.	c #7F7F72",
"_.	c #ABA29B",
":.	c #B8A8A8",
"<.	c #C9B2B9",
"[.	c #40403A",
"}.	c #8C8C7E",
"|.	c #DCDCD0",
"1.	c #BDBDB1",
"2.	c #BCBCAA",
"3.	c #8A8A7B",
"4.	c #FDF4F7",
"5.	c #FDF4F4",
"6.	c #F8F8E8",
"7.	c #F7F7E5",
"8.	c #E5E5D3",
"9.	c #CECEBA",
"0.	c #C0C0AD",
"a.	c #A3A392",
"b.	c #847B77",
"c.	c #541652",
"d.	c #66615B",
"e.	c #8C8C7D",
"f.	c #AEAE9C",
"g.	c #C1C1AE",
"h.	c #818175",
"i.	c #76766A",
"j.	c #9A9A8A",
"k.	c #98888A",
"l.	c #F141EF",
"m.	c #FE37FD",
"n.	c #E6A4D7",
"o.	c #D6C2C3",
"p.	c #C7C7B3",
"q.	c #BABAA7",
"r.	c #98628E",
"s.	c #1E1E1B",
"t.	c #5D4855",
"u.	c #5D5D54",
"v.	c #808073",
"w.	c #B6B6A4",
"x.	c #BBBBA9",
"y.	c #68685D",
"z.	c #9F9F8F",
"A.	c #A8A897",
"B.	c #AAAA99",
"C.	c #FE03FE",
"D.	c #B9B0A7",
"E.	c #929283",
"F.	c #615658",
"G.	c #7D7D70",
"H.	c #9D9D8D",
"I.	c #D4D4C0",
"J.	c #E0E0CC",
"K.	c #8F8881",
"L.	c #B1B19F",
"M.	c #A8A198",
"N.	c #AE72A2",
"O.	c #BEBEAB",
"P.	c #E0E0CE",
"Q.	c #EDEDDA",
"R.	c #B4B4A2",
"S.	c #5C5353",
"T.	c #8F8F80",
"U.	c #B2B2A1",
"V.	c #D9D9C8",
"W.	c #FCFCF1",
"X.	c #FEDEF3",
"Y.	c #FE33FB",
"Z.	c #CFCFBC",
"`.	c #D8D8C4",
" +	c #ADAD9B",
".+	c #D3D3C3",
"++	c #F4F4EE",
"@+	c #F6F6F4",
"#+	c #A8A898",
"$+	c #D7D7C5",
"%+	c #F6F6E3",
"&+	c #E4E4D0",
"*+	c #C5C5B2",
"=+	c #5A5A51",
"-+	c #818174",
";+	c #B1B1A0",
">+	c #ECECDF",
",+	c #FFFFFF",
"'+	c #DDDDCB",
")+	c #FAFAF2",
"!+	c #DFDFCE",
"~+	c #919182",
"{+	c #C4C4B4",
"]+	c #FCFCF4",
"^+	c #FFF5FF",
"/+	c #D6C4C6",
"(+	c #F9F9EF",
"_+	c #FCFCF7",
":+	c #C789B9",
"<+	c #FB09FA",
"[+	c #534F4B",
"}+	c #77776B",
"|+	c #D6D6C6",
"1+	c #FFFFFB",
"2+	c #E7E7D5",
"3+	c #FEFEF7",
"4+	c #FFFFFE",
"5+	c #F2F2E1",
"6+	c #C1BFAE",
"7+	c #636358",
"8+	c #B4B4A3",
"9+	c #ECECD9",
"0+	c #FFF2F6",
"a+	c #CAB7B9",
"b+	c #F1F1E4",
"c+	c #FFFFFD",
"d+	c #FBFBEE",
"e+	c #CDCDBA",
"f+	c #CF78C3",
"g+	c #FF01FF",
"h+	c #56444F",
"i+	c #979788",
"j+	c #C2C2B1",
"k+	c #E8E8D5",
"l+	c #E3E3D2",
"m+	c #FDFDF7",
"n+	c #FBFBF1",
"o+	c #D5D5C1",
"p+	c #BCA9AA",
"q+	c #44443D",
"r+	c #7B7B6E",
"s+	c #C4C4B2",
"t+	c #DCBECB",
"u+	c #D8BAC8",
"v+	c #F4F4E6",
"w+	c #FBFBEA",
"x+	c #D7D7C3",
"y+	c #66665B",
"z+	c #BEBEAC",
"A+	c #D2D2BF",
"B+	c #DCDCC8",
"C+	c #BFBFAC",
"D+	c #A48B96",
"E+	c #B3A3A3",
"F+	c #B0B09F",
"G+	c #AFAF9D",
"H+	c #A5A594",
"I+	c #58584F",
"J+	c #707064",
". . . . . . . . . . . . . . . . . . . . . . . . . . . . . . . . . . . . . . . . . . . . . . . . . . . . . . . . . . . . . . . . ",
". . . . . . . . . . . . . . . . . . . . . . . . . . . . . . . . . . . . . . . . . . . . . . . . . . . . . . . . . . . . . . . . ",
". . . . . . . . . . . . . . . . . . . . . . . . . . . . . . . . . . . . . . . . . . . . . . . . . . . . . . . . . . . . . . . . ",
". . . . . . . . . . . . . . . . . . . . . . . . . . . . . . . . . . . . . . . . . . . . . . . . . . . . . . . . . . . . . . . . ",
". . . . . . . . . . . . . . . . . . . . . . . . . . . . . . . . . . . . . . . . . . . . . . . . . . . . . . . . . . . . . . . . ",
". . . . . . . . . . . . . . . . . . . . . . . . . . . . . . . . . . . . . . . . . . . . . . . . . . . . . . . . . . . . . . . . ",
". . . . . . . . . . . . . . . . . . . . . . . . . . . . . . . . . . . . . . . . . . . . . . . . . . . . . . . . . . . . . . . . ",
". . . . . . . . . . . . . . . . . . . . . . . . . . . . . . . . . . . . . . . . . . . . . . . . . . . . . . . . . . . . . . . . ",
". . . . . . . . . . . . . . . . . . . . . . . . . . . . . . . . . . . . . . . . . . . . . . . . . . . . . . . . . . . . . . . . ",
". . . . . . . . . . . . . . . . . . . . . . . . . . . . . . . . . . . . . . . . . . . . . . . . . . . . . . . . . . . . . . . . ",
". . . . . . . . . . . . . . . . . . . . . . . . . . . . . . . . . . . . . . . . . . . . . . . . . . . . . . . . . . . . . . . . ",
". . . . . . . . . . . . . . . . . . . . . . . . . . . . . . . . . . . . . . . . . . . . . . . . . . . . . . . . . . . . . . . . ",
". . . . . . . . . . . . . . . . . . . . . . . . . . . . . . . . . . . . . . . . . . . . . . . . . . . . . . . . . . . . . . . . ",
". . . . . . . . . . . . . . . . . . . . . . . . . . . . . . . . . . . . . . . . . . . . . . . . . . . . . . . . . . . . . . . . ",
". . . . . . . . . . . . . . . . . . . . . . . . . . . . . . . . . . . . . . . . . . . . . . . . . . . . . . . . . . . . . . . . ",
". . . . . . . . . . . . . . . . . . . . . . . . . . . . . . . . . . . . . . . . . . . . . . . . . . . . . . . . . . . . . . . . ",
". . . . . . . . . . . . . . . . . . . . . . . . . . . . . . . . . . . . . . . . . . . . . . . . . . . . . . . . . . . . . . . . ",
". . . . . . . . . . . . . . . . . . . . . . . . . . . . . . . . . . . . . . . . . . . . . . . . . . . . . . . . . . . . . . . . ",
". . . . . . . . . . . . . . . . . . . . . . . . . . . . . . . . . . . . . . . . . . . . . . . . . . . . . . . . . . . . . . . . ",
". . . . . . . . . . . . . . . . . . . . . . . . . . + . . . . . . . . . . . . . . . . . . . . . . . . . . . . . . . . . . . . . ",
". . . . . . . . . . . . . . . . . . . . . . . . . . . . . . . . . . . . . . . . . . . . . . . . . . . . . . . . . . . . . . . . ",
". . . . . . . . . . . . . . . . . . . . . . . . @ # $ % & * . . . . . = - ; > , ' . . . . . . . . . . . . . . . . . . . . . . . ",
". . . . . . . . . . . . . . . . . . . . . . . ) . ! ~ { > ] ^ . / . ( _ : < [ } . . . . . . . . . . . . . . . . . . . . . . . . ",
". . . . . . . . . . . . . . . . . . . . . . . . . . . | 1 2 3 4 . 5 6 7 8 9 0 . . . . . . . . . . . . . . . . . . . . . . . . . ",
". . . . . . . . . . . . . . . . . . . . . . . . . . . a b c d e . f g h i j . . . . . . . . . . . . . . . . . . . . . . . . . . ",
". . . . . . . . . . . . . . . . . . . . . . . . . . . . . . k l m n o . . . . . . . . . . . . . . . . . . . . . . . . . . . . . ",
". . . . . . . . . . . . . . . . . . . . . . . . p q r ^ . . s t u v w . . x y z A . . . B . . . . . . . . . . . . . . . . . . . ",
". . . . . . . . . . . . . . . . . . . . C % D E 3 F G H I G J K L M N O P Q R S T U V W . . . . . . . . . . . . . . . . . . . . ",
". . . . . . . . . . . . . . . . . . X $ Y ^ 2 u Z `  ...+.@.l #.$.%.&.*.=.-.;.>.,.'.).!.~.[ {.. . . . . . . . . . . . . . . . . ",
". . . . . . . . . . . . . . . . . ].^./.] (.u h _.:.<.. . [.}.|.1.2. .3.. . 4.5.6.7.8.9.0.).a.b.. . . . . . . . . . . . . . . . ",
". . . . . . . . . . . . . . . . c.% { ^ . . . . . . . . d.e.f.g.h.i.8 j.k.. l.m.. . . n.o.p.q.S r.. . . . . . . . . . . . . . . ",
". . . . . . . . . . . . . . . . s.t.. . . . . . . . . u.v.8 w.x.t y.z.A.B.9 . . . . . C.. . . D.E.. . . . . . . . . . . . . . . ",
". . . . . . . . . . . . . . . . . . . . . . . . . . F.G.H.x.I.J.. K.z. .i L.M.. . . . . . . . . N.. . . . . . . . . . . . . . . ",
". . . . . . . . . . . . . . . . . . . . . . . . . . i.H.O.P.Q.. . . T R.'.M N . . . . . . . . . . . . . . . . . . . . . . . . . ",
". . . . . . . . . . . . . . . . . . . . . . . . . S.T.U.V.W.X.Y.. . . w.Z.`.O  +. . . . . . . . . . . . . . . . . . . . . . . . ",
". . . . . . . . . . . . . . . . . . . . . . . . . d T .+++@+. . . . . #+$+%+&+*+. . . . . . . . . . . . . . . . . . . . . . . . ",
". . . . . . . . . . . . . . . . . . . . . . . . =+-+;+>+,+. . . . . . . '+W.)+!+0.. . . . . . . . . . . . . . . . . . . . . . . ",
". . . . . . . . . . . . . . . . . . . . . . . . y.~+{+]+^+. . . . . . . /+(+,+_+;.:+<+. . . . . . . . . . . . . . . . . . . . . ",
". . . . . . . . . . . . . . . . . . . . . . . [+}+8 |+1+. . . . . . . . . 2+3+4+5+6+. . . . . . . . . . . . . . . . . . . . . . ",
". . . . . . . . . . . . . . . . . . . . . . . 7+G 8+9+0+. . . . . . . . . a+b+c+d+e+f+g+. . . . . . . . . . . . . . . . . . . . ",
". . . . . . . . . . . . . . . . . . . . . . h+d i+j+k+. . . . . . . . . . . l+m+n+o+p+. . . . . . . . . . . . . . . . . . . . . ",
". . . . . . . . . . . . . . . . . . . . . . q+r+z.s+t+. . . . . . . . . . . u+v+w+x+w.. . . . . . . . . . . . . . . . . . . . . ",
". . . . . . . . . . . . . . . . . . . . . . ^.y+m z+. . . . . . . . . . . . . A+B+C+!.. . . . . . . . . . . . . . . . . . . . . ",
". . . . . . . . . . . . . . . . . . . . . . % | G.D+. . . . . . . . . . . . . E+F+G+H+. . . . . . . . . . . . . . . . . . . . . ",
". . . . . . . . . . . . . . . . . . . . . . . I+J+. . . . . . . . . . . . . . . v z.. . . . . . . . . . . . . . . . . . . . . . ",
". . . . . . . . . . . . . . . . . . . . . . . . . . . . . . . . . . . . . . . . . . . . . . . . . . . . . . . . . . . . . . . . ",
". . . . . . . . . . . . . . . . . . . . . . . . . . . . . . . . . . . . . . . . . . . . . . . . . . . . . . . . . . . . . . . . ",
". . . . . . . . . . . . . . . . . . . . . . . . . . . . . . . . . . . . . . . . . . . . . . . . . . . . . . . . . . . . . . . . ",
". . . . . . . . . . . . . . . . . . . . . . . . . . . . . . . . . . . . . . . . . . . . . . . . . . . . . . . . . . . . . . . . ",
". . . . . . . . . . . . . . . . . . . . . . . . . . . . . . . . . . . . . . . . . . . . . . . . . . . . . . . . . . . . . . . . ",
". . . . . . . . . . . . . . . . . . . . . . . . . . . . . . . . . . . . . . . . . . . . . . . . . . . . . . . . . . . . . . . . ",
". . . . . . . . . . . . . . . . . . . . . . . . . . . . . . . . . . . . . . . . . . . . . . . . . . . . . . . . . . . . . . . . ",
". . . . . . . . . . . . . . . . . . . . . . . . . . . . . . . . . . . . . . . . . . . . . . . . . . . . . . . . . . . . . . . . ",
". . . . . . . . . . . . . . . . . . . . . . . . . . . . . . . . . . . . . . . . . . . . . . . . . . . . . . . . . . . . . . . . ",
". . . . . . . . . . . . . . . . . . . . . . . . . . . . . . . . . . . . . . . . . . . . . . . . . . . . . . . . . . . . . . . . ",
". . . . . . . . . . . . . . . . . . . . . . . . . . . . . . . . . . . . . . . . . . . . . . . . . . . . . . . . . . . . . . . . ",
". . . . . . . . . . . . . . . . . . . . . . . . . . . . . . . . . . . . . . . . . . . . . . . . . . . . . . . . . . . . . . . . ",
". . . . . . . . . . . . . . . . . . . . . . . . . . . . . . . . . . . . . . . . . . . . . . . . . . . . . . . . . . . . . . . . ",
". . . . . . . . . . . . . . . . . . . . . . . . . . . . . . . . . . . . . . . . . . . . . . . . . . . . . . . . . . . . . . . . ",
". . . . . . . . . . . . . . . . . . . . . . . . . . . . . . . . . . . . . . . . . . . . . . . . . . . . . . . . . . . . . . . . ",
". . . . . . . . . . . . . . . . . . . . . . . . . . . . . . . . . . . . . . . . . . . . . . . . . . . . . . . . . . . . . . . . ",
". . . . . . . . . . . . . . . . . . . . . . . . . . . . . . . . . . . . . . . . . . . . . . . . . . . . . . . . . . . . . . . . ",
". . . . . . . . . . . . . . . . . . . . . . . . . . . . . . . . . . . . . . . . . . . . . . . . . . . . . . . . . . . . . . . . ",
". . . . . . . . . . . . . . . . . . . . . . . . . . . . . . . . . . . . . . . . . . . . . . . . . . . . . . . . . . . . . . . . "};
