/* XPM */
static char * r4d2_mask_xpm[] = {
"64 64 11 1",
" 	c None",
".	c #FFFFFF",
"+	c #020202",
"@	c #000000",
"#	c #FEFEFE",
"$	c #010101",
"%	c #040404",
"&	c #E9E9E9",
"*	c #F8F8F8",
"=	c #FAFAFA",
"-	c #101010",
"................................................................",
"................................................................",
"................................................................",
"................................................................",
"................................................................",
"................................................................",
"................................................................",
"................................................................",
"................................................................",
"................................................................",
"................................................................",
"................................................................",
"................................................................",
"................................................................",
"................................................................",
"................................................................",
"................................................................",
"................................................................",
"................................................................",
"................................................................",
"................................................................",
"........................+@@@@@.....@@@@@@.......................",
".......................#.$@@@@@...@@@@@@........................",
"...........................@@@@@.@@@@@@.........................",
"...........................@@@@@.@@@@@..........................",
"..............................@@@@@.............................",
"........................@@@@..@@@@@..@@@@.......................",
"....................@@@@@@@@@@@@@@@@@@@@@@@@....................",
"..................@@@@@@@@@@@@@@@@@@@@@@@@@@@@@.................",
".................@@@@@@@@@@..@@@@@@@..@@@@@@@@@@................",
"................%@@@........@@@@@@@@@.&*...$@@@@@...............",
"................@@.........@@@@@@@@@@@.........@@...............",
"..........................@@@@@@.@@@@@@.........@...............",
"..........................@@@@@...@@@@@.........................",
".........................@@@@@@=...@@@@@........................",
".........................@@@@@.....@@@@@........................",
"........................@@@@@.......@@@@@.......................",
"........................@@@@@.......@@@@@@......................",
".......................@@@@@.........@@@@@......................",
".......................@@@@@.........@@@@@-.....................",
"......................@@@@@...........@@@@@.....................",
"......................@@@@@...........@@@@@.....................",
"......................@@@@.............@@@@.....................",
"......................@@@@.............@@@@.....................",
".......................@@...............@@......................",
"................................................................",
"................................................................",
"................................................................",
"................................................................",
"................................................................",
"................................................................",
"................................................................",
"................................................................",
"................................................................",
"................................................................",
"................................................................",
"................................................................",
"................................................................",
"................................................................",
"................................................................",
"................................................................",
"................................................................",
"................................................................",
"................................................................"};
