/* XPM */
static char * step_xpm[] = {
"24 24 73 1",
" 	c None",
".	c #C0C0C0",
"+	c #B8B8B8",
"@	c #BCBCBC",
"#	c #C6C6C6",
"$	c #D0D0D0",
"%	c #D8D8D8",
"&	c #DCDCDC",
"*	c #DEDEDE",
"=	c #AEAEAE",
"-	c #A2A2A2",
";	c #A6A6A6",
">	c #B4B4B4",
",	c #C4C4C4",
"'	c #9A9A9A",
")	c #888888",
"!	c #8B8B8B",
"~	c #9C9C9C",
"{	c #B2B2B2",
"]	c #868686",
"^	c #6C6C6C",
"/	c #6D6D6D",
"(	c #818181",
"_	c #747474",
":	c #313131",
"<	c #515151",
"[	c #646464",
"}	c #7F7F7F",
"|	c #666666",
"1	c #1A1A1A",
"2	c #2A2A2A",
"3	c #484848",
"4	c #626262",
"5	c #7E7E7E",
"6	c #C5C5C5",
"7	c #D2D2D2",
"8	c #DADADA",
"9	c #5B5B5B",
"0	c #272727",
"a	c #464646",
"b	c #C9C9C9",
"c	c #D6D6D6",
"d	c #565656",
"e	c #353535",
"f	c #262626",
"g	c #A0A0A0",
"h	c #BDBDBD",
"i	c #525252",
"j	c #3C3C3C",
"k	c #474747",
"l	c #8A8A8A",
"m	c #CACACA",
"n	c #505050",
"o	c #4C4C4C",
"p	c #282828",
"q	c #4E4E4E",
"r	c #757575",
"s	c #575757",
"t	c #2E2E2E",
"u	c #969696",
"v	c #BEBEBE",
"w	c #5E5E5E",
"x	c #404040",
"y	c #8F8F8F",
"z	c #BBBBBB",
"A	c #3E3E3E",
"B	c #2C2C2C",
"C	c #303030",
"D	c #616161",
"E	c #9B9B9B",
"F	c #1C1C1C",
"G	c #363636",
"H	c #636363",
".+@#$%&*****.+@#$%&*****",
"=-;>,$%&****=-;>,$%&****",
"')!~{,$%&***')!~{,$%&***",
"]^/('{,$%&**]^/('{,$%&**",
"_:<[}'{,$%&*_:<[}'{,$%&*",
"|12345'{678*|12345'{678*",
"9120a45~>bc*9120a45~>bc*",
"d1e2fa4(gh$*d1e2fa4(gh$*",
"i1jj2fk|l=m*i1jj2fk|l=m*",
"n1joj2pqrg,*n1joj2pqrg,*",
"n1jsoj2t[uv*n1jsoj2t[uv*",
"n1jwwoj2xyz*n1jwwoj2xyz*",
"n1jwwoj2xyz*n1jwwoj2xyz*",
"n1jsqABC[uv*n1jsqABC[uv*",
"n1joAB2qrg,*n1joAB2qrg,*",
"i1jABpa|l=m*i1jABpa|l=m*",
"d1eBpa4(gh$*d1eBpa4(gh$*",
"912paD5E>bc*912paD5E>bc*",
"|F2k45'{678*|F2k45'{678*",
"_G<H5'{,$%&*_G<H5'{,$%&*",
"]^/('{,$%&**]^/('{,$%&**",
"')l~{,$%&***')l~{,$%&***",
"=-;>,$%&****=-;>,$%&****",
".+@#$%&*****.+@#$%&*****"};
